# xmcd
# 
# Track frame offsets:
#	150
#	16995
#	41060
#	57867
# 
# Disc length: 1088 seconds
# 
# Revision: 0
# Processed by: cddbd v1.5PL3 Copyright (c) Steve Scherf et al.
# Submitted via: DCT ver.1.31
# 
DISCID=2b043e04
DTITLE=Various Artist - DEEP FEAR テーマソング
DYEAR=1998
DGENRE=game
TTITLE0=水谷優子 - DEEP FEAR
TTITLE1=小松里賀 - 思い出はずっと胸の奥に
TTITLE2=Instrumental - DEEP FEAR(KARAOKE)
TTITLE3=Instrumental - 思い出はずっと胸の奥に(KARAOKE)
EXTD=
EXTT0=
EXTT1=
EXTT2=
EXTT3=
PLAYORDER=
